classDiagram
  class IECDHKeyExchangeService {
    <<abstract>>
    📁 i_ecdh_key_exchange_service.dart
  }
  class IErmesPeerCipher {
    <<abstract>>
    📁 i_ermes_peer_cipher.dart
  }
  class IErmesPeerKeyExchange {
    <<abstract>>
    📁 i_ermes_peer_key_exchange.dart
  }
  class GenericObjectManager_K__V_ {
    <<class>>
    📁 generic_object_manager.dart
  }
  class IErmesHandshake_LocalHandshakeInfo__RemoteHandshakeInfo_ {
    <<abstract>>
    📁 i_ermes_handshake.dart
  }
  class IErmesHandshakeHandler_LocalHandshakeInfo__RemoteHandshakeInfo_ {
    <<abstract>>
    📁 i_ermes_handshake_handler.dart
  }
  class AccountInfo_InfoJsonType_ {
    <<class>>
    📁 i_ermes_book.dart
  }
  class _IErmesBookPrivate {
    <<abstract>>
    📁 i_ermes_book.dart
  }
  class IErmesBookService {
    <<abstract>>
    📁 i_ermes_book.dart
  }
  class IErmesBookRepository {
    <<abstract>>
    📁 i_ermes_book.dart
  }
  class _IErmesSignalingPrivate {
    <<abstract>>
    📁 i_ermes_signaling.dart
  }
  class IErmesSignalingRepository_SignalMessageType_ {
    <<abstract>>
    📁 i_ermes_signaling.dart
  }
  class IErmesSignalingService {
    <<abstract>>
    📁 i_ermes_signaling.dart
  }
  class IErmesSignalingHandler_SocketType_ {
    <<abstract>>
    📁 i_ermes_signaling_handler.dart
  }
  class ISignalErmes {
    <<abstract>>
    📁 i_ermes_signaling_server.dart
  }
  class ISignalErmesRaw_EncryptionType_ {
    <<abstract>>
    📁 i_ermes_signaling_server.dart
  }
  class IErmesSignalingServer {
    <<abstract>>
    📁 i_ermes_signaling_server.dart
  }
  class IErmesSignalingTODO_SocketType_ {
    <<abstract>>
    📁 i_ermes_todo.dart
  }
  class IErmesPrivate {
    <<abstract>>
    📁 i_ermes.dart
  }
  class IErmesRepository {
    <<abstract>>
    📁 i_ermes.dart
  }
  class IErmesService {
    <<abstract>>
    📁 i_ermes.dart
  }
  class IErmesConnection {
    <<abstract>>
    📁 i_ermes_connection.dart
  }
  class IErmesConnectionsHandler {
    <<abstract>>
    📁 i_ermes_connections_handler.dart
  }
  class _IErmesIcePrivate {
    <<abstract>>
    📁 i_ermes_ice_deprecated.dart
  }
  class IErmesIceRepository {
    <<abstract>>
    📁 i_ermes_ice_deprecated.dart
  }
  class _IErmesMessageControlPrivate {
    <<abstract>>
    📁 i_ermes_message_control.dart
  }
  class IErmesMessageControlRepository {
    <<abstract>>
    📁 i_ermes_message_control.dart
  }
  class IErmesMessageControlService {
    <<abstract>>
    📁 i_ermes_message_control.dart
  }
  class IErmesPeer {
    <<abstract>>
    📁 i_ermes_peer.dart
  }
  class _IIdHandlerPrivate {
    <<abstract>>
    📁 i_id_handler.dart
  }
  class IIdHandlerRepository {
    <<abstract>>
    📁 i_id_handler.dart
  }
  class IIdHandlerService {
    <<abstract>>
    📁 i_id_handler.dart
  }
  class _IIdHandlerStoragePrivate {
    <<abstract>>
    📁 i_id_handler_storage.dart
  }
  class IIdHandlerStorageRepository {
    <<abstract>>
    📁 i_id_handler_storage.dart
  }
  class IIdHandlerStorageService {
    <<abstract>>
    📁 i_id_handler_storage.dart
  }
  class IOrcErmes {
    <<abstract>>
    📁 i_orc_ermes.dart
  }
  class IErmesCachingRepository_DataJson_ {
    <<abstract>>
    📁 i_ermes_caching.dart
  }
  class IErmesCachingService_DataJson_ {
    <<abstract>>
    📁 i_ermes_caching.dart
  }
  class IErmesStorageRepository_DataJson_ {
    <<abstract>>
    📁 i_ermes_storage.dart
  }
  class IErmesStorageService_DataJson_ {
    <<abstract>>
    📁 i_ermes_storage.dart
  }
  class IErmesStorageAndCaching_DataJson_ {
    <<abstract>>
    📁 i_ermes_storage_and_caching.dart
  }
  class IErmesStorageAndCachingMessages_DataJson_ {
    <<abstract>>
    📁 i_ermes_storage_and_caching_messages.dart
  }
  class IErmesStorageAndCachingReserved_DataJson_ {
    <<abstract>>
    📁 i_ermes_storage_reserved.dart
  }
  class SocketDto_SocketType_ {
    <<class>>
    📁 callback_type_aliases.dart
  }
  class KeyInfo {
    <<class>>
    📁 cipher_types.dart
  }
  class DataEncrypted {
    <<class>>
    📁 cipher_types.dart
  }
  class DigestConverter {
    <<class>>
    📁 digest_converter.dart
  }
  class JsonConverter_T__S_ {
    <<abstract>>
    📁 json_converter.dart
  }
  class Uint8ListConverter {
    <<class>>
    📁 uint8list_converter.dart
  }
  class MessageValue {
    <<enumeration>>
    📁 message_enums.dart
  }
  class ServiceReasons {
    <<class>>
    📁 message_enums.dart
  }
  class MessageWithId {
    <<abstract>>
    📁 message_enums.dart
  }
  class IErmesSerializable {
    <<interface>>
    📁 message_enums.dart
  }
  class ErmesPeerInfo {
    <<class>>
    📁 message_enums.dart
  }
  class MessageRoot {
    <<class>>
    📁 message_root.dart
  }
  class MessageType {
    <<sealed>>
    📁 message_type.dart
  }
  class _MessageTypeData {
    <<class>>
    📁 message_type.dart
  }
  class _MessageTypeChunk {
    <<class>>
    📁 message_type.dart
  }
  class _MessageTypeService {
    <<class>>
    📁 message_type.dart
  }
  class MessageData {
    <<class>>
    📁 messages.dart
  }
  class MessageDataGeneric_T_ {
    <<class>>
    📁 messages.dart
  }
  class ChunkMessage {
    <<class>>
    📁 messages.dart
  }
  class ChunkMessageGeneric_T_ {
    <<class>>
    📁 messages.dart
  }
  class ChunkInfo {
    <<class>>
    📁 messages.dart
  }
  class InternalMessage {
    <<class>>
    📁 messages.dart
  }
  class OnSignalCreateSocketCallbackInput {
    <<class>>
    📁 ermes_callback.dart
  }
  class ErmesServiceInputGeneric_RepoType_ {
    <<class>>
    📁 ermes_input.dart
  }
  class CallbackOnMessageReceived {
    <<class>>
    📁 ermes_types.dart
  }
  class IdHandlerRepositoryInput {
    <<class>>
    📁 id_handler_input.dart
  }
  class IdHandlerServiceInput {
    <<class>>
    📁 id_handler_input.dart
  }
  class PaginationDto_T__C_ {
    <<class>>
    📁 pagination_types.dart
  }
  class ServiceMessage {
    <<sealed>>
    📁 service_messages.dart
  }
  class ServiceMessageConnectionClose {
    <<class>>
    📁 service_messages.dart
  }
  class ServiceMessageControl {
    <<class>>
    📁 service_messages.dart
  }
  class ServiceMessageAcknowledge {
    <<class>>
    📁 service_messages.dart
  }
  class ServiceMessageArrayRequest {
    <<class>>
    📁 service_messages.dart
  }
  class ServiceMessageNewKey {
    <<class>>
    📁 service_messages.dart
  }
  class SignalData {
    <<class>>
    📁 signaling_types.dart
  }
  class Signal {
    <<sealed>>
    📁 signaling_types.dart
  }
  class _SignalData {
    <<class>>
    📁 signaling_types.dart
  }
  class _SignalString {
    <<class>>
    📁 signaling_types.dart
  }
  class Response {
    <<class>>
    📁 signaling_types.dart
  }
  class OfferResponse {
    <<class>>
    📁 signaling_types.dart
  }
  class AnswerResponse {
    <<class>>
    📁 signaling_types.dart
  }
  class ISignalInfo {
    <<abstract>>
    📁 signaling_types.dart
  }
  class SignalInfoOffer {
    <<class>>
    📁 signaling_types.dart
  }
  class SignalInfoAnswer {
    <<class>>
    📁 signaling_types.dart
  }
  class SignalInfo {
    <<sealed>>
    📁 signaling_types.dart
  }
  class _SignalInfoOffer {
    <<class>>
    📁 signaling_types.dart
  }
  class _SignalInfoAnswer {
    <<class>>
    📁 signaling_types.dart
  }
  class StorageType {
    <<interface>>
    📁 storage_types.dart
  }
  class ISymmetric {
    <<interface>>
    <<external>>
    📁 external_library
  }
  class Uint8List {
    <<interface>>
    <<external>>
    📁 external_library
  }
  class ICipher {
    <<interface>>
    <<external>>
    📁 external_library
  }
  class Digest {
    <<interface>>
    <<external>>
    📁 external_library
  }
  class ISymmetricCipher {
    <<interface>>
    <<external>>
    📁 external_library
  }
  class GenericObjectManager {
    <<interface>>
    <<external>>
    📁 external_library
  }
  class IErmesHandshake {
    <<interface>>
    <<external>>
    📁 external_library
  }
  class LocalHandshakeInfo {
    <<interface>>
    <<external>>
    📁 external_library
  }
  class RemoteHandshakeInfo {
    <<interface>>
    <<external>>
    📁 external_library
  }
  class IdAccountType {
    <<interface>>
    <<external>>
    📁 external_library
  }
  class InfoJsonType {
    <<interface>>
    <<external>>
    📁 external_library
  }
  class AccountInfo {
    <<interface>>
    <<external>>
    📁 external_library
  }
  class PaginationDto {
    <<interface>>
    <<external>>
    📁 external_library
  }
  class OnSignalCallback {
    <<interface>>
    <<external>>
    📁 external_library
  }
  class SignalMessageType {
    <<interface>>
    <<external>>
    📁 external_library
  }
  class OnSignalCreateSocketCallback {
    <<interface>>
    <<external>>
    📁 external_library
  }
  class SocketReadyCallback {
    <<interface>>
    <<external>>
    📁 external_library
  }
  class SocketType {
    <<interface>>
    <<external>>
    📁 external_library
  }
  class SocketDto {
    <<interface>>
    <<external>>
    📁 external_library
  }
  class EncryptionType {
    <<interface>>
    <<external>>
    📁 external_library
  }
  class SerializableDataType {
    <<interface>>
    <<external>>
    📁 external_library
  }
  class CallbackOnDataRepository {
    <<interface>>
    <<external>>
    📁 external_library
  }
  class CallbackOnDataArrived {
    <<interface>>
    <<external>>
    📁 external_library
  }
  class CallbackOnDataSending {
    <<interface>>
    <<external>>
    📁 external_library
  }
  class CallbackOnDataSent {
    <<interface>>
    <<external>>
    📁 external_library
  }
  class CallbackOnNewKey {
    <<interface>>
    <<external>>
    📁 external_library
  }
  class TypeOfDataExternal {
    <<interface>>
    <<external>>
    📁 external_library
  }
  class IdPeer {
    <<interface>>
    <<external>>
    📁 external_library
  }
  class IdType {
    <<interface>>
    <<external>>
    📁 external_library
  }
  class CallbackIdsToRequest {
    <<interface>>
    <<external>>
    📁 external_library
  }
  class CallbackOnDataArrivedFrom {
    <<interface>>
    <<external>>
    📁 external_library
  }
  class IErmesStorageAndCachingReserved {
    <<interface>>
    <<external>>
    📁 external_library
  }
  class IErmesCachingRepository {
    <<interface>>
    <<external>>
    📁 external_library
  }
  class IErmesStorageRepository {
    <<interface>>
    <<external>>
    📁 external_library
  }
  class IErmesStorageAndCaching {
    <<interface>>
    <<external>>
    📁 external_library
  }
  class DataJson {
    <<interface>>
    <<external>>
    📁 external_library
  }
  class CryptoAlgorithm {
    <<interface>>
    <<external>>
    📁 external_library
  }
  class JsonConverter {
    <<interface>>
    <<external>>
    📁 external_library
  }
  class PeerInfo {
    <<interface>>
    <<external>>
    📁 external_library
  }
  class MessageDataGeneric {
    <<interface>>
    <<external>>
    📁 external_library
  }
  class ChunkMessageGeneric {
    <<interface>>
    <<external>>
    📁 external_library
  }
  class RepoType {
    <<interface>>
    <<external>>
    📁 external_library
  }
  class CallbackOnMessage {
    <<interface>>
    <<external>>
    📁 external_library
  }

  AccountInfo_InfoJsonType_ --> ErmesPeerInfo : uses
  AccountInfo_InfoJsonType_ --> IdAccountType : uses
  AccountInfo_InfoJsonType_ --> InfoJsonType : uses
  AnswerResponse --> AnswerResponse : uses
  CallbackOnMessageReceived --> CallbackOnDataArrived : uses
  CallbackOnMessageReceived --> CallbackOnMessage : uses
  CallbackOnMessageReceived --> CallbackOnMessageReceived : uses
  ChunkInfo --> ChunkInfo : uses
  ChunkMessage --> ChunkMessage : uses
  ChunkMessage --> Uint8List : uses
  ChunkMessageGeneric_T_ --> ChunkMessageGeneric : uses
  DataEncrypted --> Digest : uses
  DataEncrypted --> Uint8List : uses
  DigestConverter --> Digest : uses
  ErmesServiceInputGeneric_RepoType_ --> CallbackOnDataArrived : uses
  ErmesServiceInputGeneric_RepoType_ --> IErmesMessageControlService : uses
  ErmesServiceInputGeneric_RepoType_ --> IErmesStorageAndCaching : uses
  ErmesServiceInputGeneric_RepoType_ --> IIdHandlerService : uses
  ErmesServiceInputGeneric_RepoType_ --> RepoType : uses
  ErmesServiceInputGeneric_RepoType_ --> StorageType : uses
  GenericObjectManager_K__V_ --> GenericObjectManager : uses
  IECDHKeyExchangeService --> IECDHKeyExchangeService : uses
  IECDHKeyExchangeService --> ISymmetric : uses
  IErmesCachingRepository <|.. IErmesCachingService_DataJson_ : implements
  IErmesConnection --> IErmesRepository : uses
  IErmesConnection --> IdPeer : uses
  IErmesConnectionsHandler --> IErmesConnection : uses
  IErmesConnectionsHandler --> IdPeer : uses
  IErmesHandshakeHandler_LocalHandshakeInfo__RemoteHandshakeInfo_ --> IErmesHandshake : uses
  IErmesHandshakeHandler_LocalHandshakeInfo__RemoteHandshakeInfo_ --> LocalHandshakeInfo : uses
  IErmesHandshakeHandler_LocalHandshakeInfo__RemoteHandshakeInfo_ --> RemoteHandshakeInfo : uses
  IErmesHandshake_LocalHandshakeInfo__RemoteHandshakeInfo_ --> IErmesRepository : uses
  IErmesPeer --> CallbackOnDataArrived : uses
  IErmesPeer --> IdAccountType : uses
  IErmesPeer --> TypeOfDataExternal : uses
  IErmesPeerCipher --> DataEncrypted : uses
  IErmesPeerCipher --> Digest : uses
  IErmesPeerCipher --> ICipher : uses
  IErmesPeerCipher --> Uint8List : uses
  IErmesPeerKeyExchange --> DataEncrypted : uses
  IErmesPeerKeyExchange --> ISymmetricCipher : uses
  IErmesPrivate <|.. IErmesRepository : implements
  IErmesPrivate <|.. IErmesService : implements
  IErmesRepository --> CallbackOnDataRepository : uses
  IErmesRepository --> IdAccountType : uses
  IErmesRepository --> SerializableDataType : uses
  IErmesRepository <|.. IErmesIceRepository : implements
  IErmesSerializable <|.. ChunkInfo : implements
  IErmesSerializable <|.. ChunkMessage : implements
  IErmesSerializable <|.. InternalMessage : implements
  IErmesSerializable <|.. MessageData : implements
  IErmesSerializable <|.. MessageRoot : implements
  IErmesSerializable <|.. MessageType : implements
  IErmesSerializable <|.. ServiceMessage : implements
  IErmesService --> CallbackOnDataArrived : uses
  IErmesService --> CallbackOnDataSending : uses
  IErmesService --> CallbackOnDataSent : uses
  IErmesService --> CallbackOnNewKey : uses
  IErmesService --> IErmesRepository : uses
  IErmesService --> TypeOfDataExternal : uses
  IErmesSignalingHandler_SocketType_ --> ISignalErmes : uses
  IErmesSignalingHandler_SocketType_ --> IdAccountType : uses
  IErmesSignalingHandler_SocketType_ --> SocketDto : uses
  IErmesSignalingHandler_SocketType_ --> SocketReadyCallback : uses
  IErmesSignalingHandler_SocketType_ --> SocketType : uses
  IErmesSignalingRepository_SignalMessageType_ --> IdAccountType : uses
  IErmesSignalingRepository_SignalMessageType_ --> OnSignalCallback : uses
  IErmesSignalingRepository_SignalMessageType_ --> SignalMessageType : uses
  IErmesSignalingServer --> ISignalErmes : uses
  IErmesSignalingServer --> IdAccountType : uses
  IErmesSignalingService --> OnSignalCreateSocketCallback : uses
  IErmesSignalingTODO_SocketType_ --> ISignalErmes : uses
  IErmesSignalingTODO_SocketType_ --> IdAccountType : uses
  IErmesSignalingTODO_SocketType_ --> SocketDto : uses
  IErmesSignalingTODO_SocketType_ --> SocketReadyCallback : uses
  IErmesSignalingTODO_SocketType_ --> SocketType : uses
  IErmesStorageAndCaching <|.. IErmesStorageAndCachingMessages_DataJson_ : implements
  IErmesStorageAndCachingReserved <|.. IErmesCachingRepository_DataJson_ : implements
  IErmesStorageAndCachingReserved <|.. IErmesStorageAndCaching_DataJson_ : implements
  IErmesStorageAndCachingReserved <|.. IErmesStorageRepository_DataJson_ : implements
  IErmesStorageAndCachingReserved_DataJson_ --> DataJson : uses
  IErmesStorageAndCachingReserved_DataJson_ --> IdType : uses
  IErmesStorageRepository <|.. IErmesStorageService_DataJson_ : implements
  IIdHandlerRepository --> IdType : uses
  IIdHandlerService --> IdType : uses
  IOrcErmes --> CallbackOnDataArrivedFrom : uses
  IOrcErmes --> IdPeer : uses
  IOrcErmes --> TypeOfDataExternal : uses
  ISignalErmesRaw_EncryptionType_ --> EncryptionType : uses
  ISignalErmesRaw_EncryptionType_ --> ISignalErmes : uses
  ISignalInfo --> SignalData : uses
  ISignalInfo <|.. SignalInfoAnswer : implements
  ISignalInfo <|.. SignalInfoOffer : implements
  IdHandlerServiceInput --> IIdHandlerRepository : uses
  IdHandlerServiceInput --> IIdHandlerStorageService : uses
  InternalMessage --> InternalMessage : uses
  InternalMessage --> MessageType : uses
  InternalMessage --> MessageValue : uses
  JsonConverter <|.. DigestConverter : implements
  JsonConverter <|.. Uint8ListConverter : implements
  KeyInfo --> CryptoAlgorithm : uses
  MessageData --> MessageData : uses
  MessageData --> Uint8List : uses
  MessageDataGeneric_T_ --> MessageDataGeneric : uses
  MessageRoot --> Digest : uses
  MessageRoot --> MessageRoot : uses
  MessageRoot --> Uint8List : uses
  MessageType --> ChunkMessage : uses
  MessageType --> MessageData : uses
  MessageType --> MessageValue : uses
  MessageType --> ServiceMessage : uses
  MessageType <|-- _MessageTypeChunk : extends
  MessageType <|-- _MessageTypeData : extends
  MessageType <|-- _MessageTypeService : extends
  MessageWithId <|.. ChunkMessage : implements
  MessageWithId <|.. MessageData : implements
  MessageWithId <|.. ServiceMessage : implements
  OfferResponse --> OfferResponse : uses
  OfferResponse --> SignalInfoAnswer : uses
  OnSignalCreateSocketCallbackInput --> IErmesService : uses
  OnSignalCreateSocketCallbackInput --> IdAccountType : uses
  PaginationDto_T__C_ --> PaginationDto : uses
  PeerInfo <|-- ErmesPeerInfo : extends
  Response --> Response : uses
  ServiceMessage <|-- ServiceMessageAcknowledge : extends
  ServiceMessage <|-- ServiceMessageArrayRequest : extends
  ServiceMessage <|-- ServiceMessageConnectionClose : extends
  ServiceMessage <|-- ServiceMessageControl : extends
  ServiceMessage <|-- ServiceMessageNewKey : extends
  ServiceMessageAcknowledge --> ServiceMessageAcknowledge : uses
  ServiceMessageArrayRequest --> ServiceMessageArrayRequest : uses
  ServiceMessageNewKey --> CryptoAlgorithm : uses
  ServiceMessageNewKey --> ServiceMessageNewKey : uses
  Signal <|-- _SignalData : extends
  Signal <|-- _SignalString : extends
  SignalData --> SignalData : uses
  SignalInfo <|-- _SignalInfoAnswer : extends
  SignalInfo <|-- _SignalInfoOffer : extends
  SignalInfoAnswer --> SignalData : uses
  SignalInfoAnswer --> SignalInfoAnswer : uses
  SignalInfoOffer --> SignalData : uses
  SignalInfoOffer --> SignalInfoOffer : uses
  SocketDto_SocketType_ --> IdAccountType : uses
  SocketDto_SocketType_ --> SocketType : uses
  StorageType --> IdType : uses
  StorageType <|.. MessageType : implements
  Uint8ListConverter --> Uint8List : uses
  _IErmesBookPrivate --> AccountInfo : uses
  _IErmesBookPrivate --> ErmesPeerInfo : uses
  _IErmesBookPrivate --> IdAccountType : uses
  _IErmesBookPrivate --> PaginationDto : uses
  _IErmesBookPrivate <|.. IErmesBookRepository : implements
  _IErmesBookPrivate <|.. IErmesBookService : implements
  _IErmesIcePrivate --> Signal : uses
  _IErmesIcePrivate --> SignalData : uses
  _IErmesIcePrivate <|.. IErmesIceRepository : implements
  _IErmesMessageControlPrivate --> CallbackIdsToRequest : uses
  _IErmesMessageControlPrivate --> IdType : uses
  _IErmesMessageControlPrivate <|.. IErmesMessageControlRepository : implements
  _IErmesMessageControlPrivate <|.. IErmesMessageControlService : implements
  _IErmesSignalingPrivate --> IdAccountType : uses
  _IErmesSignalingPrivate <|.. IErmesSignalingRepository_SignalMessageType_ : implements
  _IErmesSignalingPrivate <|.. IErmesSignalingService : implements
  _IIdHandlerPrivate --> IdType : uses
  _IIdHandlerPrivate <|.. IIdHandlerRepository : implements
  _IIdHandlerPrivate <|.. IIdHandlerService : implements
  _IIdHandlerStoragePrivate --> IdType : uses
  _IIdHandlerStoragePrivate <|.. IIdHandlerStorageRepository : implements
  _IIdHandlerStoragePrivate <|.. IIdHandlerStorageService : implements
  _MessageTypeChunk --> ChunkMessage : uses
  _MessageTypeData --> MessageData : uses
  _MessageTypeService --> ServiceMessage : uses
  _SignalData --> SignalData : uses
  _SignalInfoAnswer --> SignalInfoAnswer : uses
  _SignalInfoOffer --> SignalInfoOffer : uses
