classDiagram
  class ErmesConnection {
    <<class>>
    📁 ermes_connection.dart
  }
  class ErmesConnectionsHandler {
    <<class>>
    📁 ermes_connections_handler.dart
  }
  class ErmesPeer {
    <<class>>
    📁 ermes_peer.dart
  }
  class ErmesReadRepoOptions {
    <<class>>
    📁 ermes_read_repo.dart
  }
  class ErmesReadRepo {
    <<class>>
    📁 ermes_read_repo.dart
  }
  class ErmesRepository {
    <<class>>
    📁 ermes_repository.dart
  }
  class ErmesSendRepo {
    <<class>>
    📁 ermes_send_repo.dart
  }
  class ErmesService {
    <<class>>
    📁 ermes_service.dart
  }
  class ChunkHandler {
    <<class>>
    📁 chunk_handler.dart
  }
  class _SortedChunk_K__V_ {
    <<class>>
    📁 chunk_handler.dart
  }
  class ObservableQueue_T_ {
    <<class>>
    📁 observable_queue.dart
  }
  class ErmesConnectionFactory {
    <<class>>
    📁 ermes_connection_factory.dart
  }
  class ErmesConnectionsHandlerFactory {
    <<class>>
    📁 ermes_connections_handler_factory.dart
  }
  class ErmesFactory {
    <<class>>
    📁 ermes_factory.dart
  }
  class ErmesPeerConfig {
    <<class>>
    📁 ermes_peer_factory.dart
  }
  class ErmesPeerFactory {
    <<class>>
    📁 ermes_peer_factory.dart
  }
  class ErmesReadRepoFactory {
    <<class>>
    📁 ermes_read_repo_factory.dart
  }
  class ErmesRepositoryFactory {
    <<class>>
    📁 ermes_repository_factory.dart
  }
  class ErmesSendRepoFactory {
    <<class>>
    📁 ermes_send_repo_factory.dart
  }
  class ErmesServiceFactory {
    <<class>>
    📁 ermes_service_factory.dart
  }
  class ConnectionState {
    <<class>>
    📁 connection_state.dart
  }
  class SerializationRegistry {
    <<class>>
    📁 serialization_registry.dart
  }
  class Timer {
    <<interface>>
    📁 dart:async
  }
  class Type {
    <<interface>>
    📁 dart:core
  }
  class IErmesConnection {
    <<interface>>
    <<external>>
    📁 external_library
  }
  class IErmesSignalingHandler {
    <<interface>>
    <<external>>
    📁 external_library
  }
  class IShspSocket {
    <<interface>>
    <<external>>
    📁 external_library
  }
  class IErmesRepository {
    <<interface>>
    <<external>>
    📁 external_library
  }
  class IdPeer {
    <<interface>>
    <<external>>
    📁 external_library
  }
  class CallbackHandler {
    <<interface>>
    <<external>>
    📁 external_library
  }
  class IErmesConnectionsHandler {
    <<interface>>
    <<external>>
    📁 external_library
  }
  class IErmesPeer {
    <<interface>>
    <<external>>
    📁 external_library
  }
  class IErmesService {
    <<interface>>
    <<external>>
    📁 external_library
  }
  class IdAccountType {
    <<interface>>
    <<external>>
    📁 external_library
  }
  class ObservableQueue {
    <<interface>>
    <<external>>
    📁 external_library
  }
  class TypeOfDataExternal {
    <<interface>>
    <<external>>
    📁 external_library
  }
  class CallbackOnDataArrived {
    <<interface>>
    <<external>>
    📁 external_library
  }
  class TypeOfData {
    <<interface>>
    <<external>>
    📁 external_library
  }
  class IdChunkType {
    <<interface>>
    <<external>>
    📁 external_library
  }
  class ServiceMessage {
    <<interface>>
    <<external>>
    📁 external_library
  }
  class IErmesMessageControlService {
    <<interface>>
    <<external>>
    📁 external_library
  }
  class CallbackServiceMessage {
    <<interface>>
    <<external>>
    📁 external_library
  }
  class SerializableDataType {
    <<interface>>
    <<external>>
    📁 external_library
  }
  class InternalMessage {
    <<interface>>
    <<external>>
    📁 external_library
  }
  class MessageType {
    <<interface>>
    <<external>>
    📁 external_library
  }
  class MessageValue {
    <<interface>>
    <<external>>
    📁 external_library
  }
  class MessageData {
    <<interface>>
    <<external>>
    📁 external_library
  }
  class ChunkMessage {
    <<interface>>
    <<external>>
    📁 external_library
  }
  class ShspInstance {
    <<interface>>
    <<external>>
    📁 external_library
  }
  class CallbackOnDataRepository {
    <<interface>>
    <<external>>
    📁 external_library
  }
  class IIdHandlerService {
    <<interface>>
    <<external>>
    📁 external_library
  }
  class Uuid {
    <<interface>>
    <<external>>
    📁 external_library
  }
  class CallbackOnMessageSending {
    <<interface>>
    <<external>>
    📁 external_library
  }
  class CallbackOnMessageSent {
    <<interface>>
    <<external>>
    📁 external_library
  }
  class MessageRoot {
    <<interface>>
    <<external>>
    📁 external_library
  }
  class IErmesStorageAndCaching {
    <<interface>>
    <<external>>
    📁 external_library
  }
  class ServiceMessageNewKey {
    <<interface>>
    <<external>>
    📁 external_library
  }
  class CallbackOnDataSending {
    <<interface>>
    <<external>>
    📁 external_library
  }
  class CallbackOnDataSent {
    <<interface>>
    <<external>>
    📁 external_library
  }
  class CallbackOnNewKey {
    <<interface>>
    <<external>>
    📁 external_library
  }
  class ServiceMessageAcknowledge {
    <<interface>>
    <<external>>
    📁 external_library
  }
  class IdType {
    <<interface>>
    <<external>>
    📁 external_library
  }
  class _SortedChunk {
    <<interface>>
    <<external>>
    📁 external_library
  }
  class IErmesBookService {
    <<interface>>
    <<external>>
    📁 external_library
  }

  ChunkHandler --> ChunkMessage : uses
  ChunkHandler --> IdChunkType : uses
  ChunkHandler --> IdType : uses
  ChunkHandler --> TypeOfData : uses
  ChunkHandler --> _SortedChunk : uses
  ConnectionState --> IdAccountType : uses
  ConnectionState --> IdPeer : uses
  ErmesConnection --> CallbackHandler : uses
  ErmesConnection --> IErmesRepository : uses
  ErmesConnection --> IErmesSignalingHandler : uses
  ErmesConnection --> IShspSocket : uses
  ErmesConnection --> IdPeer : uses
  ErmesConnectionFactory --> ErmesConnection : uses
  ErmesConnectionFactory --> IErmesRepository : uses
  ErmesConnectionFactory --> IErmesSignalingHandler : uses
  ErmesConnectionFactory --> IShspSocket : uses
  ErmesConnectionFactory --> IdPeer : uses
  ErmesConnectionsHandler --> IErmesConnection : uses
  ErmesConnectionsHandler --> IdPeer : uses
  ErmesConnectionsHandlerFactory --> ErmesConnectionsHandler : uses
  ErmesFactory --> IErmesBookService : uses
  ErmesFactory --> IErmesRepository : uses
  ErmesFactory --> IErmesService : uses
  ErmesFactory --> IErmesSignalingHandler : uses
  ErmesFactory --> IShspSocket : uses
  ErmesFactory --> IdAccountType : uses
  ErmesPeer --> CallbackHandler : uses
  ErmesPeer --> CallbackOnDataArrived : uses
  ErmesPeer --> IErmesService : uses
  ErmesPeer --> IdAccountType : uses
  ErmesPeer --> ObservableQueue : uses
  ErmesPeer --> Timer : uses
  ErmesPeer --> TypeOfDataExternal : uses
  ErmesPeerConfig --> IErmesBookService : uses
  ErmesPeerConfig --> IErmesMessageControlService : uses
  ErmesPeerConfig --> IErmesSignalingHandler : uses
  ErmesPeerConfig --> IErmesStorageAndCaching : uses
  ErmesPeerConfig --> IIdHandlerService : uses
  ErmesPeerConfig --> IShspSocket : uses
  ErmesPeerConfig --> IdAccountType : uses
  ErmesPeerConfig --> MessageType : uses
  ErmesPeerFactory --> ErmesPeer : uses
  ErmesPeerFactory --> ErmesPeerConfig : uses
  ErmesReadRepo --> CallbackHandler : uses
  ErmesReadRepo --> CallbackOnDataArrived : uses
  ErmesReadRepo --> CallbackServiceMessage : uses
  ErmesReadRepo --> ChunkHandler : uses
  ErmesReadRepo --> ChunkMessage : uses
  ErmesReadRepo --> IErmesMessageControlService : uses
  ErmesReadRepo --> IErmesRepository : uses
  ErmesReadRepo --> IdChunkType : uses
  ErmesReadRepo --> InternalMessage : uses
  ErmesReadRepo --> MessageData : uses
  ErmesReadRepo --> MessageType : uses
  ErmesReadRepo --> MessageValue : uses
  ErmesReadRepo --> ObservableQueue : uses
  ErmesReadRepo --> SerializableDataType : uses
  ErmesReadRepo --> ServiceMessage : uses
  ErmesReadRepo --> TypeOfData : uses
  ErmesReadRepo --> TypeOfDataExternal : uses
  ErmesReadRepoFactory --> ErmesReadRepo : uses
  ErmesReadRepoOptions --> CallbackOnDataArrived : uses
  ErmesRepository --> CallbackHandler : uses
  ErmesRepository --> CallbackOnDataRepository : uses
  ErmesRepository --> IErmesSignalingHandler : uses
  ErmesRepository --> IShspSocket : uses
  ErmesRepository --> IdAccountType : uses
  ErmesRepository --> SerializableDataType : uses
  ErmesRepositoryFactory --> ErmesRepository : uses
  ErmesSendRepo --> CallbackHandler : uses
  ErmesSendRepo --> CallbackOnMessageSending : uses
  ErmesSendRepo --> CallbackOnMessageSent : uses
  ErmesSendRepo --> IErmesRepository : uses
  ErmesSendRepo --> IIdHandlerService : uses
  ErmesSendRepo --> MessageRoot : uses
  ErmesSendRepo --> MessageType : uses
  ErmesSendRepo --> SerializableDataType : uses
  ErmesSendRepo --> TypeOfData : uses
  ErmesSendRepo --> Uuid : uses
  ErmesSendRepoFactory --> ErmesSendRepo : uses
  ErmesService --> CallbackHandler : uses
  ErmesService --> CallbackOnDataArrived : uses
  ErmesService --> CallbackOnDataSending : uses
  ErmesService --> CallbackOnDataSent : uses
  ErmesService --> CallbackOnNewKey : uses
  ErmesService --> ErmesReadRepo : uses
  ErmesService --> ErmesSendRepo : uses
  ErmesService --> IErmesMessageControlService : uses
  ErmesService --> IErmesRepository : uses
  ErmesService --> IErmesStorageAndCaching : uses
  ErmesService --> IIdHandlerService : uses
  ErmesService --> IdType : uses
  ErmesService --> MessageType : uses
  ErmesService --> ServiceMessage : uses
  ErmesService --> ServiceMessageAcknowledge : uses
  ErmesService --> ServiceMessageNewKey : uses
  ErmesService --> Timer : uses
  ErmesService --> TypeOfData : uses
  ErmesServiceFactory --> CallbackOnDataArrived : uses
  ErmesServiceFactory --> ErmesService : uses
  ErmesServiceFactory --> IErmesMessageControlService : uses
  ErmesServiceFactory --> IErmesRepository : uses
  ErmesServiceFactory --> IErmesStorageAndCaching : uses
  ErmesServiceFactory --> IIdHandlerService : uses
  ErmesServiceFactory --> MessageType : uses
  IErmesConnection <|.. ErmesConnection : implements
  IErmesConnectionsHandler <|.. ErmesConnectionsHandler : implements
  IErmesPeer <|.. ErmesPeer : implements
  IErmesRepository <|.. ErmesRepository : implements
  IErmesService <|.. ErmesService : implements
  SerializationRegistry --> Type : uses
  ShspInstance <|-- ErmesRepository : extends
